<svg width="52" height="32" viewBox="0 0 52 32" fill="none" xmlns="http://www.w3.org/2000/svg">
<path fill-rule="evenodd" clip-rule="evenodd" d="M37.5347 0.5C38.1785 -0.119947 39.1993 -0.115397 39.8375 0.510263L51.4016 14.5549C52.2081 15.3456 52.2001 16.6461 51.3838 17.4268L40.0398 31.5834C39.7603 31.8508 39.3883 32 39.0013 32L29.4764 32C28.1339 32 27.4661 30.3745 28.4216 29.4325L40.0451 16L29.4764 3H25.2367L35.3445 14.5555C36.1693 15.3427 36.17 16.6581 35.3461 17.4461L22.0654 31.5834C21.7859 31.8508 21.4138 32 21.0269 32H5.99984C2.68696 32 0.000980328 29.315 0.000471277 26.0021C-0.000553232 19.3347 0.000318518 12.6672 0.000957629 5.99973C0.00127525 2.68613 2.68754 0 6.00114 0H11.9697C12.7991 0 13.4714 0.671573 13.4714 1.5C13.4714 2.32843 12.7991 3 11.9697 3H7.00462C4.79548 3 3.00462 4.79086 3.00462 7C3.00462 13 3.00462 19 3.00462 25C3.00462 27.2091 4.79548 29 7.00462 29H19.9156L32.0364 16L20.4128 2.56755C19.4573 1.62547 20.1251 0 21.4677 0H30.7513C31.1383 0 31.5103 0.149232 31.7899 0.416574L43.3549 14.5539C44.1788 15.3419 44.1781 16.6573 43.3533 17.4445L33.2454 29H37.7513L48.0539 16L37.5347 3C36.8755 2.34858 36.8672 1.14288 37.5347 0.5Z" fill="black"/>
</svg>
